<mxfile host="app.diagrams.net" modified="2022-06-16T14:40:13.730Z" agent="5.0 (Windows NT 10.0; WOW64) AppleWebKit/537.36 (KHTML, like Gecko) Chrome/86.0.4240.198 Safari/537.36" etag="qV82Yb9qeMNQYFRK_2OL" version="18.0.7" type="github">
  <diagram id="ZZ165n_c1ywGP1tMmQS_" name="Page-1">
    <mxGraphModel dx="868" dy="438" grid="1" gridSize="10" guides="1" tooltips="1" connect="1" arrows="1" fold="1" page="1" pageScale="1" pageWidth="827" pageHeight="1169" math="0" shadow="0">
      <root>
        <mxCell id="0" />
        <mxCell id="1" parent="0" />
        <mxCell id="A4pGPbX6_7NkQP56Yk1n-31" value="" style="rounded=0;whiteSpace=wrap;html=1;fillColor=default;shadow=0;sketch=0;fillOpacity=0;dashed=1;" parent="1" vertex="1">
          <mxGeometry x="220" y="130" width="420" height="290" as="geometry" />
        </mxCell>
        <mxCell id="A4pGPbX6_7NkQP56Yk1n-23" value="" style="rounded=0;whiteSpace=wrap;html=1;fillColor=default;shadow=0;sketch=0;fillOpacity=0;" parent="1" vertex="1">
          <mxGeometry x="250" y="160" width="420" height="290" as="geometry" />
        </mxCell>
        <mxCell id="A4pGPbX6_7NkQP56Yk1n-33" value="" style="rounded=0;whiteSpace=wrap;html=1;fillColor=#dae8fc;shadow=0;sketch=0;fillOpacity=0;strokeColor=#6c8ebf;dashed=1;" parent="1" vertex="1">
          <mxGeometry x="363" y="220" width="80" height="110" as="geometry" />
        </mxCell>
        <mxCell id="A4pGPbX6_7NkQP56Yk1n-25" value="" style="rounded=0;whiteSpace=wrap;html=1;fillColor=#dae8fc;shadow=0;sketch=0;fillOpacity=0;strokeColor=#6c8ebf;" parent="1" vertex="1">
          <mxGeometry x="393" y="250" width="80" height="110" as="geometry" />
        </mxCell>
        <mxCell id="A4pGPbX6_7NkQP56Yk1n-37" style="edgeStyle=none;rounded=0;orthogonalLoop=1;jettySize=auto;html=1;exitX=0;exitY=0;exitDx=0;exitDy=0;entryX=0;entryY=0;entryDx=0;entryDy=0;" parent="1" source="A4pGPbX6_7NkQP56Yk1n-23" target="A4pGPbX6_7NkQP56Yk1n-31" edge="1">
          <mxGeometry relative="1" as="geometry" />
        </mxCell>
        <mxCell id="A4pGPbX6_7NkQP56Yk1n-24" value="viewport" style="rounded=0;whiteSpace=wrap;html=1;fillColor=#f8cecc;shadow=0;sketch=0;fillOpacity=0;strokeColor=#b85450;" parent="1" vertex="1">
          <mxGeometry x="400" y="257.5" width="66" height="95" as="geometry" />
        </mxCell>
        <mxCell id="A4pGPbX6_7NkQP56Yk1n-26" value="map" style="text;html=1;strokeColor=none;fillColor=none;align=center;verticalAlign=middle;whiteSpace=wrap;rounded=0;shadow=0;dashed=1;sketch=0;" parent="1" vertex="1">
          <mxGeometry x="710" y="160" width="60" height="30" as="geometry" />
        </mxCell>
        <mxCell id="A4pGPbX6_7NkQP56Yk1n-28" value="padding" style="text;html=1;strokeColor=none;fillColor=none;align=center;verticalAlign=middle;whiteSpace=wrap;rounded=0;shadow=0;dashed=1;sketch=0;" parent="1" vertex="1">
          <mxGeometry x="490" y="220" width="60" height="30" as="geometry" />
        </mxCell>
        <mxCell id="A4pGPbX6_7NkQP56Yk1n-32" value="" style="rounded=0;whiteSpace=wrap;html=1;fillColor=#f8cecc;shadow=0;sketch=0;fillOpacity=0;strokeColor=#b85450;dashed=1;" parent="1" vertex="1">
          <mxGeometry x="370" y="227.5" width="66" height="95" as="geometry" />
        </mxCell>
        <mxCell id="A4pGPbX6_7NkQP56Yk1n-36" style="edgeStyle=none;rounded=0;orthogonalLoop=1;jettySize=auto;html=1;exitX=0;exitY=0;exitDx=0;exitDy=0;" parent="1" source="A4pGPbX6_7NkQP56Yk1n-31" target="A4pGPbX6_7NkQP56Yk1n-31" edge="1">
          <mxGeometry relative="1" as="geometry" />
        </mxCell>
        <mxCell id="A4pGPbX6_7NkQP56Yk1n-38" value="" style="rounded=0;whiteSpace=wrap;html=1;shadow=0;sketch=0;fillColor=#e3c800;fontColor=#000000;strokeColor=#B09500;opacity=50;" parent="1" vertex="1">
          <mxGeometry x="363" y="220" width="80" height="30" as="geometry" />
        </mxCell>
        <mxCell id="A4pGPbX6_7NkQP56Yk1n-39" value="" style="rounded=0;whiteSpace=wrap;html=1;shadow=0;sketch=0;fillColor=#e3c800;fontColor=#000000;strokeColor=#B09500;opacity=50;" parent="1" vertex="1">
          <mxGeometry x="363" y="250" width="30" height="80" as="geometry" />
        </mxCell>
        <mxCell id="A4pGPbX6_7NkQP56Yk1n-40" value="" style="rounded=0;whiteSpace=wrap;html=1;shadow=0;sketch=0;fillColor=#008a00;fontColor=#ffffff;strokeColor=#005700;opacity=50;" parent="1" vertex="1">
          <mxGeometry x="443" y="250" width="30" height="80" as="geometry" />
        </mxCell>
        <mxCell id="A4pGPbX6_7NkQP56Yk1n-41" value="" style="rounded=0;whiteSpace=wrap;html=1;shadow=0;sketch=0;fillColor=#008a00;fontColor=#ffffff;strokeColor=#005700;opacity=50;" parent="1" vertex="1">
          <mxGeometry x="393" y="330" width="80" height="30" as="geometry" />
        </mxCell>
        <mxCell id="A4pGPbX6_7NkQP56Yk1n-43" value="" style="endArrow=classic;html=1;rounded=0;exitX=0;exitY=1;exitDx=0;exitDy=0;entryX=0.9;entryY=0.182;entryDx=0;entryDy=0;entryPerimeter=0;" parent="1" source="A4pGPbX6_7NkQP56Yk1n-28" target="A4pGPbX6_7NkQP56Yk1n-40" edge="1">
          <mxGeometry width="50" height="50" relative="1" as="geometry">
            <mxPoint x="466" y="215" as="sourcePoint" />
            <mxPoint x="426" y="255" as="targetPoint" />
          </mxGeometry>
        </mxCell>
        <mxCell id="A4pGPbX6_7NkQP56Yk1n-44" value="" style="endArrow=classic;html=1;rounded=0;ignoreEdge=0;entryX=0.952;entryY=0.483;entryDx=0;entryDy=0;entryPerimeter=0;" parent="1" target="A4pGPbX6_7NkQP56Yk1n-23" edge="1">
          <mxGeometry width="50" height="50" relative="1" as="geometry">
            <mxPoint x="720" y="190" as="sourcePoint" />
            <mxPoint x="730" y="340" as="targetPoint" />
          </mxGeometry>
        </mxCell>
        <mxCell id="A4pGPbX6_7NkQP56Yk1n-46" style="edgeStyle=none;rounded=0;orthogonalLoop=1;jettySize=auto;html=1;exitX=1;exitY=1;exitDx=0;exitDy=0;entryX=0.567;entryY=0.636;entryDx=0;entryDy=0;entryPerimeter=0;" parent="1" source="A4pGPbX6_7NkQP56Yk1n-45" target="A4pGPbX6_7NkQP56Yk1n-39" edge="1">
          <mxGeometry relative="1" as="geometry" />
        </mxCell>
        <mxCell id="A4pGPbX6_7NkQP56Yk1n-47" style="edgeStyle=none;rounded=0;orthogonalLoop=1;jettySize=auto;html=1;exitX=1;exitY=1;exitDx=0;exitDy=0;entryX=0.588;entryY=0.667;entryDx=0;entryDy=0;entryPerimeter=0;" parent="1" source="A4pGPbX6_7NkQP56Yk1n-45" target="A4pGPbX6_7NkQP56Yk1n-38" edge="1">
          <mxGeometry relative="1" as="geometry" />
        </mxCell>
        <mxCell id="A4pGPbX6_7NkQP56Yk1n-45" value="hide tiles" style="text;html=1;strokeColor=none;fillColor=none;align=center;verticalAlign=middle;whiteSpace=wrap;rounded=0;shadow=0;sketch=0;opacity=50;" parent="1" vertex="1">
          <mxGeometry x="280" y="180" width="60" height="30" as="geometry" />
        </mxCell>
        <mxCell id="A4pGPbX6_7NkQP56Yk1n-49" style="edgeStyle=none;rounded=0;orthogonalLoop=1;jettySize=auto;html=1;exitX=0;exitY=0;exitDx=0;exitDy=0;entryX=0.567;entryY=0.375;entryDx=0;entryDy=0;entryPerimeter=0;" parent="1" source="A4pGPbX6_7NkQP56Yk1n-48" target="A4pGPbX6_7NkQP56Yk1n-40" edge="1">
          <mxGeometry relative="1" as="geometry" />
        </mxCell>
        <mxCell id="A4pGPbX6_7NkQP56Yk1n-50" style="edgeStyle=none;rounded=0;orthogonalLoop=1;jettySize=auto;html=1;exitX=0;exitY=0;exitDx=0;exitDy=0;entryX=0.463;entryY=0.333;entryDx=0;entryDy=0;entryPerimeter=0;" parent="1" source="A4pGPbX6_7NkQP56Yk1n-48" target="A4pGPbX6_7NkQP56Yk1n-41" edge="1">
          <mxGeometry relative="1" as="geometry" />
        </mxCell>
        <mxCell id="A4pGPbX6_7NkQP56Yk1n-48" value="show tiles" style="text;html=1;strokeColor=none;fillColor=none;align=center;verticalAlign=middle;whiteSpace=wrap;rounded=0;shadow=0;sketch=0;opacity=50;" parent="1" vertex="1">
          <mxGeometry x="500" y="360" width="60" height="30" as="geometry" />
        </mxCell>
        <mxCell id="A4pGPbX6_7NkQP56Yk1n-51" value="move" style="text;html=1;strokeColor=none;fillColor=none;align=center;verticalAlign=middle;whiteSpace=wrap;rounded=0;shadow=0;sketch=0;opacity=50;" parent="1" vertex="1">
          <mxGeometry x="230" y="130" width="60" height="30" as="geometry" />
        </mxCell>
        <mxCell id="A4pGPbX6_7NkQP56Yk1n-52" value="last viewport" style="text;html=1;strokeColor=none;fillColor=none;align=center;verticalAlign=middle;whiteSpace=wrap;rounded=0;shadow=0;sketch=0;opacity=50;" parent="1" vertex="1">
          <mxGeometry x="373" y="190" width="60" height="30" as="geometry" />
        </mxCell>
        <mxCell id="A4pGPbX6_7NkQP56Yk1n-53" value="current viewport" style="text;html=1;strokeColor=none;fillColor=none;align=center;verticalAlign=middle;whiteSpace=wrap;rounded=0;shadow=0;sketch=0;opacity=50;" parent="1" vertex="1">
          <mxGeometry x="403" y="360" width="60" height="30" as="geometry" />
        </mxCell>
      </root>
    </mxGraphModel>
  </diagram>
</mxfile>
